# xmcd
#
# Track frame offsets:
# 150
# 27976
# 57093
# 87905
# 121679
# 160886
# 185520
# 209192
# 246150
# 273549
# 314380
#
# Disc length: 4489 seconds
#
# Revision: 1
# Processed by: cddbd v1.4PL0 Copyright (c) Steve Scherf et al.
# Submitted via: CedeCatalogueitor 2.5 http://usuarios.lycos.es/kakasboy
#
DISCID=9b11870b
DTITLE=Bob Dylan - Sing While You Slave
DYEAR=2002
DGENRE=
TTITLE0=Maggie's Farm (Dallas)
TTITLE1=Mississippi (Charlotte)
TTITLE2=I Threw It All Away (Greenville)
TTITLE3=Lonesome Day Blues (Jacksonville)
TTITLE4=Stuck Inside (Jacksonville)
TTITLE5=Lay Lady Lay (Tampa)
TTITLE6=Tangled Up In Blue (Sunrise)
TTITLE7=Tangled Up In Blue (Sunrise)
TTITLE8=Highwater (Orlando)
TTITLE9=Visions Of Johanna (Dallas)
TTITLE10=Gotta Serve Somebody (Sunrise)
EXTD=Live Jan Feb 2002 Us Tour Highlights
EXTT0=
EXTT1=
EXTT2=
EXTT3=
EXTT4=
EXTT5=
EXTT6=
EXTT7=
EXTT8=
EXTT9=
EXTT10=
PLAYORDER=
